# xmcd
# Track frame offsets:
# 150
# 8202
# 18538
# 26080
# 36185
# 48705
# 58829
# 71474
# 83882
# 96061
# 107042
# 114638
#
# Disc length: 1678 seconds
# Revision: 1
# Processed by: cddbd v1.5.2PL0 Copyright (c) Steve Scherf et al.
# Submitted via: VisiTrax 2.11.3.279 - For more info visit www.synapsa.com
#
DISCID=9f068c0c
DTITLE=Johnny Cash - Cash Sings Hank Williams
DYEAR=1960
DGENRE=Country
TTITLE0=I Can't Help It
TTITLE1=You Win Again
TTITLE2=Hey, Good Lookin'
TTITLE3=I Could Never Be Ashamed Of You
TTITLE4=Next In Line
TTITLE5=Straight A's In Love
TTITLE6=Folsom Prison Blues
TTITLE7=Give My Love To Rose
TTITLE8=I Walk The Line
TTITLE9=I Love You Because
TTITLE10=Come In Stranger
TTITLE11=Mean Eyed Cat
EXTD=Play 24-7 Limited.
EXTT0=
EXTT1=
EXTT2=
EXTT3=
EXTT4=
EXTT5=
EXTT6=
EXTT7=
EXTT8=
EXTT9=
EXTT10=
EXTT11=
PLAYORDER=
